<svg xmlns="http://www.w3.org/2000/svg" width="23.231" height="21.255" viewBox="0 0 23.231 21.255">
  <g id="create_Entity_List" data-name="create Entity List" transform="translate(-6543 -4670)">
    <g id="Group_3908" data-name="Group 3908" transform="translate(0 43)">
      <path id="Subtraction_5" data-name="Subtraction 5" d="M14.5,21.255H12.71a2.483,2.483,0,0,0,.962-.6l2.067-2.067v1.343A1.284,1.284,0,0,1,14.5,21.255Zm-3.411,0H1.238A1.284,1.284,0,0,1,0,19.931V6.064H.43c.036,0,.073.005.108.005H3.928A1.809,1.809,0,0,0,5.67,4.2V.578c0-.045,0-.092-.007-.139V0H14.5a1.284,1.284,0,0,1,1.237,1.324V11.517l-5.6,5.6a2.5,2.5,0,0,0,0,3.535,2.477,2.477,0,0,0,.956.6ZM3.937,4.971H.538a.514.514,0,0,1-.482-.322.512.512,0,0,1,.113-.567L4.077.173A.51.51,0,0,1,4.442.019.518.518,0,0,1,4.966.54v3.4A1.044,1.044,0,0,1,3.937,4.971Z" transform="translate(6543 4627)" fill="#5d5d5d"/>
      <g id="pencil-edit-button" transform="translate(6554.096 4634.594)">
        <path id="Path_2882" data-name="Path 2882" d="M7.547,3.3l2.469,2.469L4.028,11.761,1.561,9.293Zm4.342-.6-1.1-1.1a1.092,1.092,0,0,0-1.543,0L8.19,2.662l2.469,2.469,1.23-1.23A.842.842,0,0,0,11.888,2.709ZM.007,13.022a.281.281,0,0,0,.34.334L3.1,12.689.631,10.221Z" transform="translate(-0.001 -1.289)" fill="#505050"/>
      </g>
      <g id="Group_3906" data-name="Group 3906" transform="translate(35 60)">
        <path id="Path_2888" data-name="Path 2888" d="M.1-1.036h9" transform="translate(6511.5 4576.5)" fill="none" stroke="#fff" stroke-linecap="round" stroke-width="2"/>
        <line id="Line_1050" data-name="Line 1050" x2="9" transform="translate(6511.5 4579.5)" fill="none" stroke="#fff" stroke-linecap="round" stroke-width="2"/>
        <path id="Path_2889" data-name="Path 2889" d="M0,0H4.2" transform="translate(6511.5 4583.5)" fill="none" stroke="#fff" stroke-linecap="round" stroke-width="2"/>
      </g>
    </g>
  </g>
</svg>
