<svg id="delete" xmlns="http://www.w3.org/2000/svg" width="11.662" height="15.291" viewBox="0 0 11.662 15.291">
  <path id="Path_1325" data-name="Path 1325" d="M73.8,1.39A.783.783,0,0,1,74.612.6h3.336a.783.783,0,0,1,.811.789v.864h.6V1.39A1.385,1.385,0,0,0,77.948,0H74.612A1.385,1.385,0,0,0,73.2,1.39v.864h.6Zm0,0" transform="translate(-70.449)" fill="#9e9e9e"/>
  <path id="Path_1326" data-name="Path 1326" d="M29.416,134.632h7.108a1.28,1.28,0,0,0,1.217-1.353V124H28.2v9.28a1.28,1.28,0,0,0,1.217,1.353Zm5.47-9.2a.3.3,0,0,1,.6,0v7.1a.3.3,0,1,1-.6,0Zm-2.217,0a.3.3,0,1,1,.6,0v7.1a.3.3,0,1,1-.6,0Zm-2.217,0a.3.3,0,0,1,.6,0v7.1a.3.3,0,1,1-.6,0Zm0,0" transform="translate(-27.14 -119.341)" fill="#9e9e9e"/>
  <path id="Path_1327" data-name="Path 1327" d="M.751,69.5H10.91a.751.751,0,0,0,0-1.5H.751a.751.751,0,0,0,0,1.5Zm0,0" transform="translate(0 -65.445)" fill="#9e9e9e"/>
</svg>
