<svg xmlns="http://www.w3.org/2000/svg" width="19.074" height="21.677" viewBox="0 0 19.074 21.677">
  <g id="Group_1143" data-name="Group 1143" transform="translate(-3821.291 -3367.819)">
    <path id="Path_1259" data-name="Path 1259" d="M3839.818,3380.437a.544.544,0,0,0-.546.547v4.97a2.453,2.453,0,0,1-2.449,2.45h-11.99a2.453,2.453,0,0,1-2.449-2.45V3380.9a.547.547,0,1,0-1.093,0v5.051a3.546,3.546,0,0,0,3.542,3.542h11.99a3.545,3.545,0,0,0,3.542-3.542v-4.97a.547.547,0,0,0-.547-.547Zm0,0" fill="#666"/>
    <path id="Path_1260" data-name="Path 1260" d="M3821.838,3376.878a.544.544,0,0,0,.546-.546v-4.971a2.452,2.452,0,0,1,2.449-2.449h11.99a2.452,2.452,0,0,1,2.449,2.449v5.052a.547.547,0,0,0,1.093,0v-5.052a3.546,3.546,0,0,0-3.542-3.542h-11.99a3.546,3.546,0,0,0-3.542,3.542v4.971a.547.547,0,0,0,.547.546Zm0,0" fill="#666"/>
    <rect id="Rectangle_1157" data-name="Rectangle 1157" width="12.292" height="15.184" rx="1.509" transform="translate(3824.546 3371.066)" fill="#666"/>
  </g>
</svg>
