<svg xmlns="http://www.w3.org/2000/svg" width="17.678" height="19.074" viewBox="0 0 17.678 19.074">
  <g id="Group_1141" data-name="Group 1141" transform="translate(-3760.17 -3369.121)">
    <path id="Path_1255" data-name="Path 1255" d="M3768.788,3369.667a.545.545,0,0,0,.547.547h4.971a2.452,2.452,0,0,1,2.449,2.449v11.99a2.452,2.452,0,0,1-2.449,2.449h-5.052a.547.547,0,1,0,0,1.093h5.052a3.546,3.546,0,0,0,3.542-3.542v-11.99a3.545,3.545,0,0,0-3.542-3.542h-4.971a.547.547,0,0,0-.547.546Zm0,0" fill="#666"/>
    <path id="Path_1256" data-name="Path 1256" d="M3764.579,3381.746l-2.543-2.542h11.088a.547.547,0,0,0,0-1.093h-11.088l2.543-2.542a.55.55,0,0,0,.161-.385.527.527,0,0,0-.161-.384.545.545,0,0,0-.774,0l-3.473,3.473a.554.554,0,0,0-.162.385.53.53,0,0,0,.162.384l3.473,3.473a.546.546,0,0,0,.774-.769Zm0,0" fill="#666"/>
  </g>
</svg>
