<svg xmlns="http://www.w3.org/2000/svg" width="15.937" height="15.387" viewBox="0 0 15.937 15.387">
  <g id="Group_4053" data-name="Group 4053" transform="translate(-5812.129 -3702.378)">
    <path id="Path_2291" data-name="Path 2291" d="M-3047.414-373.333a.394.394,0,0,0-.392.4v3.516a1.185,1.185,0,0,1-1.177,1.188h-11.012a1.184,1.184,0,0,1-1.177-1.188v-10.318a1.183,1.183,0,0,1,1.177-1.188h3.484a.394.394,0,0,0,.392-.4.394.394,0,0,0-.392-.4h-3.484a1.973,1.973,0,0,0-1.962,1.98v10.318a1.974,1.974,0,0,0,1.962,1.98h11.012a1.973,1.973,0,0,0,1.962-1.98v-3.516a.4.4,0,0,0-.393-.4Zm0,0" transform="translate(8874.586 4084.706)" fill="#9e9e9e" stroke="#9e9e9e" stroke-width="1"/>
    <g id="Group_4047" data-name="Group 4047">
      <path id="Path_2292" data-name="Path 2292" d="M-3052.373-375.267l5.646-5.646,1.821,1.821-5.646,5.646Zm0,0" transform="translate(8871.263 4084.531)" fill="#9e9e9e"/>
      <g id="Group_2589" data-name="Group 2589" transform="translate(5817.899 3702.378)">
        <path id="Path_2293" data-name="Path 2293" d="M-3053.77-369l2.338-.648a.1.1,0,0,0,.044-.168l-1.69-1.69a.1.1,0,0,0-.168.044l-.647,2.338A.1.1,0,0,0-3053.77-369Zm-.171.047" transform="translate(3053.941 378.69)" fill="#9e9e9e"/>
        <path id="Path_2294" data-name="Path 2294" d="M-3040.778-382.6a.968.968,0,0,0-1.367,0l-.409.41,1.82,1.821.41-.41a.967.967,0,0,0,0-1.367Zm0,0" transform="translate(3049.737 382.878)" fill="#9e9e9e"/>
      </g>
    </g>
  </g>
</svg>
