<svg xmlns="http://www.w3.org/2000/svg" width="19.53" height="19.529" viewBox="0 0 19.53 19.529">
  <g id="Group_742" data-name="Group 742" transform="translate(-113.003 -2705.758)">
    <rect id="Rectangle_690" data-name="Rectangle 690" width="7.948" height="7.948" rx="2.713" transform="translate(126.912 2705.758) rotate(45)" fill="#5d5d5d"/>
    <path id="Path_455" data-name="Path 455" d="M130.24,2719.365a.384.384,0,0,1,.384.384v5.028a.384.384,0,0,1-.384.383h-5.027a.384.384,0,0,1-.384-.383v-5.028a.384.384,0,0,1,.384-.384h5.027m0-1.076h-5.027a1.46,1.46,0,0,0-1.46,1.46v5.028a1.46,1.46,0,0,0,1.46,1.459h5.027a1.46,1.46,0,0,0,1.46-1.459v-5.028a1.46,1.46,0,0,0-1.46-1.46Z" transform="translate(-0.814 -0.949)" fill="#5d5d5d"/>
    <path id="Path_456" data-name="Path 456" d="M119.491,2708.616a.384.384,0,0,1,.384.383v5.028a.384.384,0,0,1-.384.384h-5.027a.384.384,0,0,1-.384-.384V2709a.384.384,0,0,1,.384-.383h5.027m0-1.077h-5.027A1.46,1.46,0,0,0,113,2709v5.028a1.46,1.46,0,0,0,1.46,1.459h5.027a1.46,1.46,0,0,0,1.46-1.459V2709a1.46,1.46,0,0,0-1.46-1.46Z" transform="translate(0 -0.135)" fill="#5d5d5d"/>
    <path id="Path_457" data-name="Path 457" d="M119.491,2719.365a.384.384,0,0,1,.384.384v5.028a.384.384,0,0,1-.384.383h-5.027a.384.384,0,0,1-.384-.383v-5.028a.384.384,0,0,1,.384-.384h5.027m0-1.076h-5.027a1.46,1.46,0,0,0-1.46,1.46v5.028a1.46,1.46,0,0,0,1.46,1.459h5.027a1.46,1.46,0,0,0,1.46-1.459v-5.028a1.46,1.46,0,0,0-1.46-1.46Z" transform="translate(0 -0.949)" fill="#5d5d5d"/>
  </g>
</svg>
