<svg id="Group_433" data-name="Group 433" xmlns="http://www.w3.org/2000/svg" width="18.902" height="17.14" viewBox="0 0 18.902 17.14">
  <path id="Path_305" data-name="Path 305" d="M5818.25,443.178h13.082a2.905,2.905,0,0,0,2.517-4.358l-6.54-11.329a2.907,2.907,0,0,0-5.034,0l-6.542,11.329A2.907,2.907,0,0,0,5818.25,443.178Z" transform="translate(-5815.341 -426.038)" fill="#a70237"/>
  <g id="Group_432" data-name="Group 432" transform="translate(8.165 4.092)">
    <rect id="Rectangle_449" data-name="Rectangle 449" width="2.129" height="2.13" rx="0.993" transform="translate(0.221 8.698)" fill="#fff"/>
    <path id="Path_306" data-name="Path 306" d="M5825.734,437.437a.609.609,0,0,1-.609.58h-.666a.612.612,0,0,1-.609-.58l-.344-6.664a.614.614,0,0,1,.61-.643h1.352a.61.61,0,0,1,.609.643Z" transform="translate(-5823.505 -430.13)" fill="#fff"/>
  </g>
</svg>
