<svg xmlns="http://www.w3.org/2000/svg" width="14.96" height="14.958" viewBox="0 0 14.96 14.958">
  <g id="key" transform="translate(0 -0.014)">
    <path id="Path_1295" data-name="Path 1295" d="M14.037,11.715a3.846,3.846,0,0,0-.949-.025l-.01-.912-.422-.482-1-.016h0c0,.014,0-1,0-1l-.466-.338s-.907-.027-.915-.034L10.2,7.971l-.84-.994a4.93,4.93,0,1,0-2.353,2.37l5.583,5.617,2.364.006,0-2.386S14.588,12.222,14.037,11.715ZM3.973,5.161a1.171,1.171,0,1,1,1.164-1.17A1.167,1.167,0,0,1,3.973,5.161Z" transform="translate(0 0)" fill="#efc75e"/>
    <path id="Path_1296" data-name="Path 1296" d="M45.4,43.767A1.636,1.636,0,1,0,47.035,45.4,1.636,1.636,0,0,0,45.4,43.767Zm0,2.337a.7.7,0,1,1,.7-.7A.7.7,0,0,1,45.4,46.1Z" transform="translate(-41.425 -41.416)" fill="#ca9f30"/>
    <path id="Path_1297" data-name="Path 1297" d="M125.144,161.011a4.916,4.916,0,0,1-1.529.9l5.551,5.453H131.5Z" transform="translate(-117.012 -152.397)" fill="#ca9f30"/>
  </g>
</svg>
