<svg xmlns="http://www.w3.org/2000/svg" width="19.821" height="18.994" viewBox="0 0 19.821 18.994">
  <g id="Group_1126" data-name="Group 1126" transform="translate(-2656.904 -3107.918)">
    <path id="Path_1197" data-name="Path 1197" d="M2674.247,3114.27a.324.324,0,0,1-.32.32h-1.9a.319.319,0,0,1-.314-.32v-1.9a.315.315,0,0,1,.314-.314A2.221,2.221,0,0,1,2674.247,3114.27Z" fill="#ff5722"/>
    <path id="Path_1198" data-name="Path 1198" d="M2673.58,3115.224a2.215,2.215,0,1,1-2.5-2.5v1.55a.95.95,0,0,0,.948.954Z" fill="#ff5722"/>
    <path id="Path_1199" data-name="Path 1199" d="M2664.337,3115.767v.824a2.062,2.062,0,0,1-2.066,2.065h-1.236v2.066a.412.412,0,1,1-.824,0v-6.609a.412.412,0,0,1,.412-.412h1.648A2.065,2.065,0,0,1,2664.337,3115.767Z" fill="#ff5722"/>
    <path id="Path_1200" data-name="Path 1200" d="M2669.194,3115.224a2.208,2.208,0,0,1,1.882-2.5v1.55a.95.95,0,0,0,.948.954h1.556a2.215,2.215,0,0,1-4.386,0Z" fill="#ff5722"/>
    <path id="Path_1201" data-name="Path 1201" d="M2671.71,3114.27v-1.9a.315.315,0,0,1,.314-.314,2.221,2.221,0,0,1,2.223,2.217.324.324,0,0,1-.32.32h-1.9A.319.319,0,0,1,2671.71,3114.27Z" fill="#ff5722"/>
    <path id="Path_1202" data-name="Path 1202" d="M2676.307,3109.575h-7.839v-1.241a.411.411,0,0,0-.157-.32.417.417,0,0,0-.353-.087l-10.729,2.478a.422.422,0,0,0-.325.406v14.036a.41.41,0,0,0,.353.407l10.734,1.653a.416.416,0,0,0,.471-.347c0-.016.006-.037.006-.059v-1.242h7.839a.417.417,0,0,0,.418-.412v-14.86A.417.417,0,0,0,2676.307,3109.575Zm-.412,14.86h-7.427v-1.648h5.362a.418.418,0,0,0,.417-.417.413.413,0,0,0-.417-.412h-5.362v-1.648h5.362a.415.415,0,1,0,0-.83h-5.362V3110.4h7.427Z" fill="#ff5722"/>
    <path id="Path_1203" data-name="Path 1203" d="M2664.337,3116.591a2.062,2.062,0,0,1-2.066,2.065h-1.236v2.066a.412.412,0,1,1-.824,0v-6.609a.412.412,0,0,1,.412-.412h1.648a2.065,2.065,0,0,1,2.066,2.066Z" fill="#ff5722"/>
    <path id="Path_1204" data-name="Path 1204" d="M2668.468,3110.4v9.081h5.362a.415.415,0,1,1,0,.83h-5.362v1.648h5.362a.413.413,0,0,1,.417.412.418.418,0,0,1-.417.417h-5.362v1.648h7.427V3110.4Zm3.231,6.707a2.215,2.215,0,1,1-.623-4.386v1.55a.95.95,0,0,0,.948.954h1.556A2.22,2.22,0,0,1,2671.7,3117.106Zm2.228-2.516h-1.9a.319.319,0,0,1-.314-.32v-1.9a.315.315,0,0,1,.314-.314,2.221,2.221,0,0,1,2.223,2.217A.324.324,0,0,1,2673.927,3114.59Z" fill="#fafafa"/>
    <path id="Path_1205" data-name="Path 1205" d="M2672.024,3115.224h1.556a2.215,2.215,0,1,1-2.5-2.5v1.55A.95.95,0,0,0,2672.024,3115.224Z" fill="#ff5722"/>
    <path id="Path_1206" data-name="Path 1206" d="M2674.247,3114.27a.324.324,0,0,1-.32.32h-1.9a.319.319,0,0,1-.314-.32v-1.9a.315.315,0,0,1,.314-.314A2.221,2.221,0,0,1,2674.247,3114.27Z" fill="#ff5722"/>
    <path id="Path_1207" data-name="Path 1207" d="M2662.271,3113.7h-1.648a.412.412,0,0,0-.412.412v6.609a.412.412,0,1,0,.824,0v-2.066h1.236a2.062,2.062,0,0,0,2.066-2.065v-.824A2.065,2.065,0,0,0,2662.271,3113.7Zm1.242,2.89a1.241,1.241,0,0,1-1.242,1.241h-1.236v-3.3h1.236a1.237,1.237,0,0,1,1.242,1.237Z" fill="#fafafa"/>
  </g>
</svg>
