<svg xmlns="http://www.w3.org/2000/svg" width="11.401" height="11.401" viewBox="0 0 11.401 11.401">
  <g id="Component_31_3" data-name="Component 31 – 3" transform="translate(0)">
    <path id="Path_2271" data-name="Path 2271" d="M-3081.478,19.128h-4.553a.194.194,0,0,0-.193.151.19.19,0,0,0,.185.23h4.553a.2.2,0,0,0,.193-.15.191.191,0,0,0-.185-.231Zm0,0" transform="translate(3089.459 -10.958)" fill="#666"/>
    <path id="Path_2272" data-name="Path 2272" d="M-3081.478,20.376h-4.553a.194.194,0,0,0-.193.15.19.19,0,0,0,.185.23h4.553a.2.2,0,0,0,.193-.15.19.19,0,0,0-.185-.23Zm0,0" transform="translate(3089.459 -11.255)" fill="#666"/>
    <path id="Path_2273" data-name="Path 2273" d="M-3080.778,11.373V8.666a.262.262,0,0,0-.262-.262h-7.458a.262.262,0,0,0-.262.262v2.707a.262.262,0,0,1-.262.262h-1.185a.262.262,0,0,0-.262.262v5.936a.262.262,0,0,0,.262.262h.616a.262.262,0,0,1,.262.262V18.4a.262.262,0,0,0,.262.262h.045a.262.262,0,0,1,.262.263v.616a.262.262,0,0,0,.262.262h7.458a.262.262,0,0,0,.262-.262v-.616a.262.262,0,0,1,.262-.263h0a.307.307,0,0,0,.308-.307h0a.262.262,0,0,1,.262-.262h.539a.338.338,0,0,0,.338-.338V12.17a.536.536,0,0,0-.536-.536h-.912A.262.262,0,0,1-3080.778,11.373Zm-7.576-2.589h7.172a.024.024,0,0,1,.023.024v2.8a.024.024,0,0,1-.023.024h-7.172a.025.025,0,0,1-.024-.024v-2.8A.024.024,0,0,1-3088.354,8.784Zm7.2,9.88V19.4a.024.024,0,0,1-.023.024h-7.172a.024.024,0,0,1-.024-.024V15.459a.024.024,0,0,1,.024-.024h7.172a.024.024,0,0,1,.023.024Zm.19-4.179a.952.952,0,0,1-.948-1.006.956.956,0,0,1,.9-.894.951.951,0,0,1,1,.949.951.951,0,0,1-.95.95Zm0,0" transform="translate(3090.469 -8.404)" fill="#666"/>
    <path id="Path_2274" data-name="Path 2274" d="M-3077.606,14.961a.57.57,0,0,1-.6.569.575.575,0,0,1-.544-.551.569.569,0,0,1,.569-.589.57.57,0,0,1,.57.571Zm0,0" transform="translate(3087.677 -9.83)" fill="#666"/>
  </g>
</svg>
