<svg xmlns="http://www.w3.org/2000/svg" width="14.3" height="14.754" viewBox="0 0 14.3 14.754">
  <g id="Group_4400" data-name="Group 4400" transform="translate(3089.767 166.258)">
    <rect id="Rectangle_1678" data-name="Rectangle 1678" width="1.787" height="3.011" rx="0.893" transform="translate(-3081.722 -164.752)" fill="#5d5d5d"/>
    <path id="Path_2252" data-name="Path 2252" d="M-3078.4-166.258h-10.477a.893.893,0,0,0-.893.893V-152.4a.893.893,0,0,0,.893.893h12.514a.893.893,0,0,0,.893-.893v-10.909a.894.894,0,0,0-.258-.628l-2.037-2.059A.893.893,0,0,0-3078.4-166.258Zm-7.5.6h5.961a.893.893,0,0,1,.893.893v3.03a.893.893,0,0,1-.893.893h-5.961a.893.893,0,0,1-.893-.893v-3.03A.893.893,0,0,1-3085.9-165.655Zm6.854,13.55h-7.45a.893.893,0,0,1-.894-.893v-4.537a.894.894,0,0,1,.894-.894h7.45a.894.894,0,0,1,.893.894V-153A.893.893,0,0,1-3079.041-152.1Zm.893,0" fill="#5d5d5d"/>
    <path id="Path_2253" data-name="Path 2253" d="M-3085.9-156.622h2.086a.3.3,0,0,0,.3-.3.3.3,0,0,0-.3-.3h-2.086a.3.3,0,0,0-.3.3.3.3,0,0,0,.3.3Zm0,0" fill="#5d5d5d"/>
    <path id="Path_2254" data-name="Path 2254" d="M-3085.9-155.417h2.979a.3.3,0,0,0,.3-.3.3.3,0,0,0-.3-.3h-2.979a.3.3,0,0,0-.3.3.3.3,0,0,0,.3.3Zm0,0" fill="#5d5d5d"/>
    <path id="Path_2255" data-name="Path 2255" d="M-3082.021-155.417a.3.3,0,0,0,.211-.089.317.317,0,0,0,.088-.213.315.315,0,0,0-.088-.213.3.3,0,0,0-.42,0,.3.3,0,0,0-.089.213.308.308,0,0,0,.086.213.3.3,0,0,0,.212.089Zm0,0" fill="#5d5d5d"/>
  </g>
</svg>
