<svg xmlns="http://www.w3.org/2000/svg" width="23.645" height="20.885" viewBox="0 0 23.645 20.885">
  <g id="Group_677" data-name="Group 677" transform="translate(-4931.96 -130.316)">
    <g id="Group_676" data-name="Group 676">
      <path id="Path_386" data-name="Path 386" d="M4955.211,144.109a.393.393,0,0,0,.394-.394v-3.153a.394.394,0,0,0-.394-.394h-4.96l2.48-2.48a.394.394,0,0,0,0-.557l-2.153-2.153a.4.4,0,0,0-.558,0,1.576,1.576,0,0,1-2.229-2.23.394.394,0,0,0,0-.557l-1.759-1.759a.4.4,0,0,0-.558,0l-9.736,9.736h-3.384a.4.4,0,0,0-.394.394v3.153a.394.394,0,0,0,.394.394,1.577,1.577,0,1,1,0,3.153.394.394,0,0,0-.394.394v3.152a.394.394,0,0,0,.394.394h22.857a.393.393,0,0,0,.394-.394v-3.152a.393.393,0,0,0-.394-.394,1.576,1.576,0,0,1,0-3.153Zm-9.458-12.841,1.225,1.224a2.364,2.364,0,0,0,3.3,3.3l1.619,1.619-2.758,2.758h-1.25l.9-.9a.4.4,0,0,0,0-.558l-4.335-4.335a.4.4,0,0,0-.557,0l-5.8,5.8h-1.25Zm-6.536,8.9,4.96-4.96,3.777,3.778-1.182,1.182Zm15.6,7.849v2.4h-3.153v-1.576h-.788v1.576h-14.187v-.394h-.788v.394h-3.153v-2.4a2.364,2.364,0,0,0,0-4.663v-2.4h3.153v1.183h.788v-1.183h18.128v2.4a2.364,2.364,0,0,0,0,4.663Z" fill="#333"/>
      <rect id="Rectangle_565" data-name="Rectangle 565" width="0.788" height="1.576" transform="translate(4950.876 141.745)" fill="#333"/>
      <rect id="Rectangle_566" data-name="Rectangle 566" width="0.788" height="1.576" transform="translate(4950.876 144.109)" fill="#333"/>
      <rect id="Rectangle_567" data-name="Rectangle 567" width="0.788" height="1.576" transform="translate(4950.876 146.473)" fill="#333"/>
      <rect id="Rectangle_568" data-name="Rectangle 568" width="0.788" height="1.576" transform="translate(4935.901 142.927)" fill="#333"/>
      <rect id="Rectangle_569" data-name="Rectangle 569" width="0.788" height="1.576" transform="translate(4935.901 145.291)" fill="#333"/>
      <rect id="Rectangle_570" data-name="Rectangle 570" width="0.788" height="1.576" transform="translate(4935.901 147.656)" fill="#333"/>
      <path id="Path_387" data-name="Path 387" d="M4949.3,142.927a.787.787,0,0,1-.788-.788.4.4,0,0,0-.4-.394h-8.669a.393.393,0,0,0-.394.394.788.788,0,0,1-.789.788.394.394,0,0,0-.394.394v4.729a.4.4,0,0,0,.394.394.788.788,0,0,1,.789.788.393.393,0,0,0,.394.394h8.669a.4.4,0,0,0,.4-.394.787.787,0,0,1,.788-.788.4.4,0,0,0,.394-.394v-4.729A.394.394,0,0,0,4949.3,142.927Zm-.394,4.778a1.585,1.585,0,0,0-1.133,1.133h-7.981a1.584,1.584,0,0,0-1.132-1.133v-4.04a1.581,1.581,0,0,0,1.132-1.132h7.981a1.582,1.582,0,0,0,1.133,1.132Z" fill="#333"/>
    </g>
  </g>
</svg>
