<svg xmlns="http://www.w3.org/2000/svg" width="21.538" height="22.037" viewBox="0 0 21.538 22.037">
  <g id="Group_2116" data-name="Group 2116" transform="translate(-4671.063 -7969.441)">
    <path id="Path_52" data-name="Path 52" d="M4689.446,6531.6a10.768,10.768,0,1,0-15.229,15.228q.2.2.417.4a10.769,10.769,0,0,0,14.518-.111c.1-.093.2-.188.3-.285a10.766,10.766,0,0,0,0-15.228Zm-1.485,15.174a9.733,9.733,0,1,1,3.606-7.561A9.694,9.694,0,0,1,4687.961,6546.77Z" transform="translate(0 1441)" fill="gray"/>
    <g id="Group_21" data-name="Group 21" transform="translate(4674.572 7972.378)">
      <path id="Union_1" data-name="Union 1" d="M0,13.468l1.213-.334,3.271-.9-.02-.032.585-.757.239.223,2.13,1.98,0,0h0l-2.132-1.98.025-.223.081-.745-.006,0,.027-.183.023-.168h0c-.022-.017-.044-.035-.065-.053A4.727,4.727,0,0,1,3.932,7.33,1.431,1.431,0,0,1,2.687,5.987c-.1-1.226.4-1.214.852-1.187,0,0-.245-4.816,3.66-4.8,3.9-.016,3.658,4.8,3.658,4.8.453-.027.956-.039.853,1.187A1.43,1.43,0,0,1,10.467,7.33a4.726,4.726,0,0,1-1.445,2.958A3.345,3.345,0,0,1,7.2,10.8h0a3.345,3.345,0,0,0,1.823-.516c.028-.023.057-.051.085-.078h0c.084-.084.174-.178.264-.286l.091.68v0l.112.834.029.223-.028-.221h.268l.581.75h0l2.9.828,1.19.339A10.769,10.769,0,0,1,0,13.468Zm7.477.178,2.132-1.982Zm-.1-1.968h0ZM7.18,10.8h0Zm-.016,0h0Zm-.028,0h0Zm-.009,0h0Zm-.021,0h0Zm-.008,0h0Zm-.018,0-.039,0Zm-.04,0L7,10.8Zm-.046,0-.047,0Zm-.048,0A3.278,3.278,0,0,1,5.523,10.4,3.277,3.277,0,0,0,6.947,10.792ZM5.522,10.4l-.013-.009ZM5.5,10.387,5.5,10.38Zm-.018-.013,0,0Zm-.016-.011,0,0Zm-.015-.012h0ZM5.049,11.44h.264l-.025.223Z" transform="translate(0 2.373)" fill="gray" stroke="rgba(0,0,0,0)" stroke-width="1"/>
      <path id="Path_54" data-name="Path 54" d="M4688.827,6536.084a2.725,2.725,0,0,0-1.736-2.452.042.042,0,0,1,.016-.08,2.292,2.292,0,0,1,.534.029,5.563,5.563,0,0,0-3.624-.651.076.076,0,0,1-.048-.141,3.9,3.9,0,0,1,1.208-.421c-2.992.056-4.24,1.3-4.59,1.743a.048.048,0,0,1-.085-.041,3.675,3.675,0,0,1,.508-1.071,2.26,2.26,0,0,0-1.215,2.282,2.2,2.2,0,0,0-.769,2.048c.335,2.392.523,2.314.523,2.314s.565-.1.646.955c0,0,.083-2.332.161-2.666a7.626,7.626,0,0,0,.977-1.767s4.008-1.223,5.366,1.044a7.806,7.806,0,0,1,.386,3.131s.186-.822.712-.769a20.559,20.559,0,0,0,.354-2.841.875.875,0,0,1,.265.462,2.989,2.989,0,0,0-.063-1.6.034.034,0,0,1,.058-.034C4688.583,6535.751,4688.827,6536.084,4688.827,6536.084Z" transform="translate(-4676.574 -6532.369)" fill="gray"/>
      <path id="Path_57" data-name="Path 57" d="M4687.907,6549.195c-.028.028-.057.055-.085.079C4687.85,6549.25,4687.879,6549.223,4687.907,6549.195Z" transform="translate(-4678.8 -6536.613)" fill="gray"/>
      <path id="Path_58" data-name="Path 58" d="M4683.023,6549.37l-.006,0-.019.173.024-.169Z" transform="translate(-4677.583 -6536.656)" fill="gray"/>
      <path id="Path_59" data-name="Path 59" d="M4688.3,6549.49l-.092-.681a3.721,3.721,0,0,1-.265.287,3.787,3.787,0,0,0,.264-.286Z" transform="translate(-4678.83 -6536.516)" fill="gray"/>
    </g>
  </g>
</svg>
