<svg id="Component_32_2" data-name="Component 32 – 2" xmlns="http://www.w3.org/2000/svg" width="16" height="9.538" viewBox="0 0 16 9.538">
  <g id="Group_2512" data-name="Group 2512" transform="translate(3114.139 433.951)">
    <path id="Path_2237" data-name="Path 2237" d="M-3106.139-433.951a9.983,9.983,0,0,0-7.875,4.389.633.633,0,0,0,0,.756,9.977,9.977,0,0,0,7.875,4.393,9.984,9.984,0,0,0,7.875-4.389.633.633,0,0,0,0-.756,9.978,9.978,0,0,0-7.875-4.393Zm.219,8.127a3.367,3.367,0,0,1-3.577-3.577,3.373,3.373,0,0,1,3.139-3.139,3.367,3.367,0,0,1,3.577,3.577,3.383,3.383,0,0,1-3.139,3.139Zm-.1-1.551a1.81,1.81,0,0,1-1.925-1.925,1.821,1.821,0,0,1,1.692-1.692,1.809,1.809,0,0,1,1.925,1.925,1.82,1.82,0,0,1-1.692,1.692Zm0,0" fill="#505050"/>
  </g>
</svg>
