<svg xmlns="http://www.w3.org/2000/svg" width="15.61" height="15.61" viewBox="0 0 15.61 15.61">
  <g id="zoom-in" transform="translate(0.91 -0.042)">
    <g id="Group_2119" data-name="Group 2119" transform="translate(-0.91 0.042)">
      <path id="Path_1307" data-name="Path 1307" d="M15.263,13.568,12.045,10.35a6.424,6.424,0,0,0,1.163-3.743,6.487,6.487,0,0,0-.521-2.566A6.468,6.468,0,0,0,9.17.524a6.582,6.582,0,0,0-5.131,0A6.467,6.467,0,0,0,.521,4.042a6.582,6.582,0,0,0,0,5.131,6.467,6.467,0,0,0,3.518,3.518,6.49,6.49,0,0,0,2.566.521,6.425,6.425,0,0,0,3.743-1.163l3.218,3.208a1.114,1.114,0,0,0,.844.356,1.2,1.2,0,0,0,.854-2.045ZM9.573,9.576A4.047,4.047,0,0,1,6.6,10.81,4.048,4.048,0,0,1,3.635,9.576,4.047,4.047,0,0,1,2.4,6.607,4.047,4.047,0,0,1,3.635,3.638,4.047,4.047,0,0,1,6.6,2.4,4.048,4.048,0,0,1,9.573,3.638a4.047,4.047,0,0,1,1.234,2.969A4.047,4.047,0,0,1,9.573,9.576Z" transform="translate(0 -0.003)" fill="#b1b1b1"/>
      <path id="Path_1308" data-name="Path 1308" d="M115.349,112.04h-2.1v-2.1a.3.3,0,0,0-.3-.3h-.6a.3.3,0,0,0-.3.3v2.1h-2.1a.3.3,0,0,0-.3.3v.6a.3.3,0,0,0,.3.3h2.1v2.1a.3.3,0,0,0,.3.3h.6a.3.3,0,0,0,.3-.3v-2.1h2.1a.3.3,0,0,0,.3-.3v-.6a.3.3,0,0,0-.3-.3Z" transform="translate(-106.043 -106.037)" fill="#b1b1b1"/>
    </g>
  </g>
</svg>
