<svg xmlns="http://www.w3.org/2000/svg" width="17.677" height="19.074" viewBox="0 0 17.677 19.074">
  <g id="Group_1142" data-name="Group 1142" transform="translate(-3790.087 -3369.121)">
    <path id="Path_1257" data-name="Path 1257" d="M3799.146,3387.648a.544.544,0,0,0-.546-.546h-4.971a2.452,2.452,0,0,1-2.449-2.449v-11.99a2.452,2.452,0,0,1,2.449-2.449h5.052a.547.547,0,0,0,0-1.093h-5.052a3.545,3.545,0,0,0-3.542,3.542v11.99a3.546,3.546,0,0,0,3.542,3.542h4.971a.547.547,0,0,0,.546-.547Zm0,0" fill="#666"/>
    <path id="Path_1258" data-name="Path 1258" d="M3803.356,3375.569l2.542,2.542h-11.087a.547.547,0,1,0,0,1.093H3805.9l-2.542,2.542a.552.552,0,0,0-.162.385.526.526,0,0,0,.162.384.544.544,0,0,0,.773,0l3.473-3.473a.549.549,0,0,0,.162-.384.527.527,0,0,0-.162-.385l-3.473-3.473a.545.545,0,0,0-.773.769Zm0,0" fill="#666"/>
  </g>
</svg>
