<svg id="download-1" xmlns="http://www.w3.org/2000/svg" width="9.694" height="10.34" viewBox="0 0 9.694 10.34">
  <g id="Group_3544" data-name="Group 3544" transform="translate(2.262)">
    <g id="Group_3543" data-name="Group 3543" transform="translate(0)">
      <path id="Path_2836" data-name="Path 2836" d="M133.139,4.713a.322.322,0,0,0-.294-.189h-1.293V.323A.323.323,0,0,0,131.229,0h-1.293a.323.323,0,0,0-.323.323v4.2h-1.293a.323.323,0,0,0-.243.536l2.262,2.585a.322.322,0,0,0,.486,0l2.262-2.585A.322.322,0,0,0,133.139,4.713Z" transform="translate(-127.998)" fill="#666"/>
    </g>
  </g>
  <g id="Group_3546" data-name="Group 3546" transform="translate(0 7.109)">
    <g id="Group_3545" data-name="Group 3545" transform="translate(0)">
      <path id="Path_2837" data-name="Path 2837" d="M24.4,352v1.939H17.293V352H16v2.585a.646.646,0,0,0,.646.646h8.4a.646.646,0,0,0,.646-.646V352Z" transform="translate(-16 -352)" fill="#666"/>
    </g>
  </g>
</svg>
