<svg xmlns="http://www.w3.org/2000/svg" width="19.824" height="21.255" viewBox="0 0 19.824 21.255">
  <g id="Entity_Management" data-name="Entity Management" transform="translate(-6689 -4944)">
    <g id="Group_3915" data-name="Group 3915" transform="translate(507 -329)">
      <path id="Subtraction_11" data-name="Subtraction 11" d="M10.271,21.255H1.258A1.294,1.294,0,0,1,0,19.931V6.064H.45c.034,0,.066,0,.1,0H3.992A1.822,1.822,0,0,0,5.764,4.2V.578c0-.042,0-.088-.007-.139V0h8.986A1.293,1.293,0,0,1,16,1.324V8.852H13.717a.425.425,0,0,0-.413.332l-.236,1.085a5.991,5.991,0,0,0-.842.349l-.934-.6L11.262,10H12a1,1,0,1,0,0-2H4a1,1,0,0,0,0,2h6.865a.423.423,0,0,0-.1.074L9.074,11.765A.419.419,0,0,0,8.955,12H4a1,1,0,0,0,0,2H9.292l-.023.068L8.184,14.3a.425.425,0,0,0-.332.412V16H4a1,1,0,1,0,0,2H9a1,1,0,0,0,.334-.057,5.917,5.917,0,0,0,.285.656l-.6.935a.424.424,0,0,0,.057.527l1.2,1.194ZM4,4.971H.547a.52.52,0,0,1-.492-.327.507.507,0,0,1,.116-.562L4.144.173A.52.52,0,0,1,4.515.019.529.529,0,0,1,5.048.54v3.4A1.052,1.052,0,0,1,4,4.971Z" transform="translate(6182 5273)" fill="#5d5d5d"/>
      <path id="gear" d="M9.593,3.793l-.755-.164A4.109,4.109,0,0,0,8.6,3.043l.418-.65a.294.294,0,0,0-.039-.366L7.8.85A.294.294,0,0,0,7.431.811l-.65.418A4.11,4.11,0,0,0,6.195.986L6.031.231A.294.294,0,0,0,5.744,0H4.08a.294.294,0,0,0-.287.231L3.629.986a4.109,4.109,0,0,0-.586.243L2.393.811A.294.294,0,0,0,2.027.85L.85,2.027a.294.294,0,0,0-.039.366l.418.65a4.109,4.109,0,0,0-.243.586l-.755.164A.294.294,0,0,0,0,4.08V5.744a.294.294,0,0,0,.231.287l.755.164a4.109,4.109,0,0,0,.243.586l-.418.65A.294.294,0,0,0,.85,7.8L2.027,8.974a.294.294,0,0,0,.366.039l.65-.418a4.109,4.109,0,0,0,.586.243l.164.755a.294.294,0,0,0,.287.231H5.744a.294.294,0,0,0,.287-.231l.164-.755A4.109,4.109,0,0,0,6.781,8.6l.65.418A.294.294,0,0,0,7.8,8.974L8.974,7.8a.294.294,0,0,0,.039-.366L8.6,6.781a4.109,4.109,0,0,0,.243-.586l.755-.164a.294.294,0,0,0,.231-.287V4.08A.294.294,0,0,0,9.593,3.793ZM6.674,4.912A1.761,1.761,0,1,1,4.912,3.151,1.763,1.763,0,0,1,6.674,4.912Zm0,0" transform="translate(6192 5284)" fill="#5d5d5d"/>
    </g>
  </g>
</svg>
