<svg xmlns="http://www.w3.org/2000/svg" width="15.74" height="21.255" viewBox="0 0 15.74 21.255">
  <g id="Entity_List" data-name="Entity List" transform="translate(-6543 -4632)">
    <g id="Group_3910" data-name="Group 3910" transform="translate(0 67)">
      <g id="file" transform="translate(6543 4565)">
        <path id="Path_2880" data-name="Path 2880" d="M94.769,21.255H101.4a1.283,1.283,0,0,0,1.237-1.324V1.324A1.283,1.283,0,0,0,101.4,0H92.563V.438a1.378,1.378,0,0,1,.007.14V4.2A1.808,1.808,0,0,1,90.827,6.07H87.438c-.035,0-.073,0-.108-.005H86.9V19.931a1.283,1.283,0,0,0,1.237,1.324h6.631Zm.25-4.5H90.694a.627.627,0,0,1,0-1.251h4.327a.627.627,0,0,1,0,1.251Zm4.327-3.194H90.694a.627.627,0,0,1,0-1.251h8.652a.627.627,0,0,1,0,1.251ZM90.694,8.918h8.652a.627.627,0,0,1,0,1.251H90.694a.627.627,0,0,1,0-1.251Z" transform="translate(-86.9)" fill="#5d5d5d"/>
        <path id="Path_2881" data-name="Path 2881" d="M88.069,5.752h3.4A1.038,1.038,0,0,0,92.5,4.723v-3.4A.521.521,0,0,0,91.973.8a.507.507,0,0,0-.365.154L87.7,4.863A.521.521,0,0,0,88.069,5.752Z" transform="translate(-87.531 -0.781)" fill="#5d5d5d"/>
      </g>
      <rect id="Rectangle_2231" data-name="Rectangle 2231" width="12" height="12" transform="translate(6545 4573)" fill="#5d5d5d"/>
      <g id="Group_3904" data-name="Group 3904" transform="translate(35 -2)">
        <line id="Line_1049" data-name="Line 1049" x2="9" transform="translate(6511.5 4576.5)" fill="none" stroke="#fff" stroke-linecap="round" stroke-width="2"/>
        <line id="Line_1050" data-name="Line 1050" x2="9" transform="translate(6511.5 4580.5)" fill="none" stroke="#fff" stroke-linecap="round" stroke-width="2"/>
        <line id="Line_1051" data-name="Line 1051" x2="5" transform="translate(6511.5 4584.5)" fill="none" stroke="#fff" stroke-linecap="round" stroke-width="2"/>
      </g>
    </g>
  </g>
</svg>
