<svg xmlns="http://www.w3.org/2000/svg" width="17" height="17" viewBox="0 0 17 17">
  <g id="Group_3047" data-name="Group 3047" transform="translate(710 -674)">
    <rect id="Rectangle_1925" data-name="Rectangle 1925" width="17" height="17" transform="translate(-710 674)" fill="#fff" opacity="0"/>
    <g id="entity_list" data-name="entity list" transform="translate(-710 650.147)">
      <g id="Group_21" data-name="Group 21" transform="translate(0 24.45)">
        <path id="Path_504" data-name="Path 504" d="M191.035,46.25H180.442a.043.043,0,0,0-.042.042v.992a.043.043,0,0,0,.042.042h10.593a.043.043,0,0,0,.042-.042v-.992A.041.041,0,0,0,191.035,46.25Z" transform="translate(-174.077 -45.486)" fill="#666"/>
        <circle id="Ellipse_2" data-name="Ellipse 2" cx="1.328" cy="1.328" r="1.328" transform="translate(1.178 6.695)" fill="#666"/>
        <circle id="Ellipse_3" data-name="Ellipse 3" cx="1.335" cy="1.335" r="1.335" transform="translate(1.171 12.513)" fill="#666"/>
        <path id="Path_505" data-name="Path 505" d="M180.442,98.526h5.005a.043.043,0,0,0,.042-.042v-.992a.043.043,0,0,0-.042-.042h-5.005a.043.043,0,0,0-.042.042v.992A.045.045,0,0,0,180.442,98.526Z" transform="translate(-174.077 -94.891)" fill="#666"/>
        <path id="Path_506" data-name="Path 506" d="M191.035,212.45H180.442a.043.043,0,0,0-.042.042v.992a.043.043,0,0,0,.042.042h10.593a.043.043,0,0,0,.042-.042v-.992A.041.041,0,0,0,191.035,212.45Z" transform="translate(-174.077 -205.86)" fill="#666"/>
        <path id="Path_507" data-name="Path 507" d="M180.442,264.726h5.005a.043.043,0,0,0,.042-.042v-.992a.043.043,0,0,0-.042-.042h-5.005a.043.043,0,0,0-.042.042v.992A.048.048,0,0,0,180.442,264.726Z" transform="translate(-174.077 -255.266)" fill="#666"/>
        <path id="Path_508" data-name="Path 508" d="M191.035,378.55H180.442a.043.043,0,0,0-.042.042v.992a.043.043,0,0,0,.042.042h10.593a.043.043,0,0,0,.042-.042v-.992A.04.04,0,0,0,191.035,378.55Z" transform="translate(-174.077 -366.138)" fill="#666"/>
        <path id="Path_509" data-name="Path 509" d="M185.447,429.85h-5.005a.043.043,0,0,0-.042.042v.992a.043.043,0,0,0,.042.042h5.005a.043.043,0,0,0,.042-.042v-.992A.04.04,0,0,0,185.447,429.85Z" transform="translate(-174.077 -415.64)" fill="#666"/>
        <path id="Path_510" data-name="Path 510" d="M1.872,26.627.957,25.7,0,26.658l.918.918.95.957.953-.95,2.191-2.177-.95-.957Z" transform="translate(0 -24.45)" fill="#666"/>
      </g>
    </g>
  </g>
</svg>
