<svg xmlns="http://www.w3.org/2000/svg" width="17" height="17" viewBox="0 0 17 17">
  <g id="Group_3046" data-name="Group 3046" transform="translate(710 -650)">
    <rect id="Rectangle_1924" data-name="Rectangle 1924" width="17" height="17" transform="translate(-710 650)" fill="#fff" opacity="0"/>
    <g id="entity_management" data-name="entity management" transform="translate(-710 650.093)">
      <path id="Path_489" data-name="Path 489" d="M42.915,20.034a.576.576,0,0,0-.576.576v-.576a.576.576,0,0,0-1.153,0,.576.576,0,1,0-1.153,0V16.576a.576.576,0,1,0-1.153,0v5.479a1.156,1.156,0,0,1-.122.515l-.167.333h-.288l-.324-1.62a1.569,1.569,0,0,0-1.539-1.261.442.442,0,0,0-.442.442h0a.444.444,0,0,0,.074.245l.3.445a1.57,1.57,0,0,1,.252.676l.2,1.595a1.729,1.729,0,0,0,.214.643l.981,2.017v.576h4.61v-.576l.519-.692a1.729,1.729,0,0,0,.346-1.037V20.61A.576.576,0,0,0,42.915,20.034Z" transform="translate(-26.492 -12.254)" fill="#666"/>
      <path id="Path_490" data-name="Path 490" d="M27.576,12.864a.288.288,0,0,1,.288-.288h1.729V12H27.864a.865.865,0,0,0-.864.864v.593a2.586,2.586,0,0,1,.576.134Z" transform="translate(-20.085 -9.407)" fill="#666"/>
      <path id="Path_491" data-name="Path 491" d="M19.822,9.576a.288.288,0,0,1,.288.288v1.591a2.555,2.555,0,0,1,.576-.134V9.864A.865.865,0,0,0,19.822,9h-.881a2.451,2.451,0,0,1,0,.576Z" transform="translate(-14.348 -7.271)" fill="#666"/>
      <path id="Path_493" data-name="Path 493" d="M4.162,5.495a1.153,1.153,0,1,1,1.709,0,2,2,0,0,1,.8.677,2.017,2.017,0,1,0-3.3,0A2.007,2.007,0,0,1,4.162,5.495Z" transform="translate(-3 -3)" fill="#666"/>
      <path id="Path_494" data-name="Path 494" d="M5.678,13.719a2.006,2.006,0,0,0,2.491,0,1.438,1.438,0,0,0-2.491,0Z" transform="translate(-4.906 -10.119)" fill="#666"/>
      <path id="Path_495" data-name="Path 495" d="M15.644,27.292V27h-.593A2.592,2.592,0,0,1,9.9,27H7v5.186h8.644v-.64c-.016-.073-.029-.146-.038-.221l-.2-1.594a1,1,0,0,0-.159-.427l-.3-.445a1.015,1.015,0,0,1,.693-1.568ZM14.492,31.61H7.576V29.305h.576v1.729h.576V29.881h.576v1.153h.576v-.576h.576v.576h.576V29.881h.576v1.153h.576v-.576h.576v.576h.576V29.881h.576v1.153h.576Z" transform="translate(-5.847 -20.085)" fill="#666"/>
      <path id="Path_496" data-name="Path 496" d="M19,21.017a2,2,0,0,0,.366,1.155,2,2,0,0,1,.8-.677,1.153,1.153,0,1,1,1.709,0,2,2,0,0,1,.8.677A2.016,2.016,0,1,0,19,21.017Z" transform="translate(-14.39 -14.39)" fill="#666"/>
      <path id="Path_497" data-name="Path 497" d="M34.609,23.576H35.2a.577.577,0,0,1,.576.576v.323a2.124,2.124,0,0,1,.576.206v-.817A.865.865,0,0,0,35.491,23H34.475A2.575,2.575,0,0,1,34.609,23.576Z" transform="translate(-25.406 -17.237)" fill="#666"/>
      <path id="Path_498" data-name="Path 498" d="M12.8,29.915H4.153a.577.577,0,0,1-.576-.576V24.153a.577.577,0,0,1,.576-.576h2.9A2.575,2.575,0,0,1,7.185,23H3.864A.865.865,0,0,0,3,23.864v5.763a.865.865,0,0,0,.864.864h9.22a.843.843,0,0,0,.453-.137l-.31-.637A.571.571,0,0,1,12.8,29.915Z" transform="translate(-3 -17.237)" fill="#666"/>
      <path id="Path_499" data-name="Path 499" d="M16.763,55H11.576a.577.577,0,0,0-.576.576h6.339A.577.577,0,0,0,16.763,55Z" transform="translate(-8.695 -40.017)" fill="#666"/>
      <path id="Path_500" data-name="Path 500" d="M38.678,6.562a2.307,2.307,0,0,0,.165.394l.074.14-.326.57.5.5.57-.325.063.033V7.322a1.1,1.1,0,0,1,.014-.142,1.729,1.729,0,1,1,2.276,0,1.092,1.092,0,0,1,.014.142v.557l.063-.033.57.325.5-.5-.326-.57.074-.14a2.284,2.284,0,0,0,.165-.394l.046-.151.632-.173V5.525l-.632-.173L43.084,5.2a2.308,2.308,0,0,0-.165-.394l-.074-.14.326-.57-.5-.5-.57.325-.14-.074a2.307,2.307,0,0,0-.4-.165l-.151-.047L41.237,3h-.713l-.173.632-.151.047a2.291,2.291,0,0,0-.395.165l-.14.074-.57-.325-.5.5.326.57-.074.14a2.283,2.283,0,0,0-.165.394l-.046.151L38,5.525v.713l.632.173Z" transform="translate(-27.915 -3)" fill="#666"/>
      <path id="Path_501" data-name="Path 501" d="M45.153,9a1.151,1.151,0,0,0-.9,1.877,1.138,1.138,0,0,1,1.791,0A1.151,1.151,0,0,0,45.153,9Z" transform="translate(-32.186 -7.271)" fill="#666"/>
      <path id="Path_502" data-name="Path 502" d="M21.678,29.719a2.006,2.006,0,0,0,2.491,0,1.438,1.438,0,0,0-2.491,0Z" transform="translate(-16.296 -21.508)" fill="#666"/>
      <path id="Path_503" data-name="Path 503" d="M16,51h3.458v.576H16Z" transform="translate(-12.254 -37.169)" fill="#666"/>
    </g>
  </g>
</svg>
