<svg xmlns="http://www.w3.org/2000/svg" width="19.976" height="18.729" viewBox="0 0 19.976 18.729">
  <g id="Group_1109" data-name="Group 1109" transform="translate(-2656.826 -2850.463)">
    <path id="Path_1114" data-name="Path 1114" d="M2676.176,2852.962h-8.112v-1.873a.616.616,0,0,0-.226-.481.622.622,0,0,0-.516-.134l-9.985,1.873a.628.628,0,0,0-.511.615v13.731a.625.625,0,0,0,.511.615l9.985,1.872a.735.735,0,0,0,.116.012.639.639,0,0,0,.4-.145.617.617,0,0,0,.226-.481v-1.873h8.112a.622.622,0,0,0,.626-.621v-12.49A.622.622,0,0,0,2676.176,2852.962Zm-10.826,9.834a.6.6,0,0,1-.411.151.617.617,0,0,1-.464-.209l-1.821-2.076-1.589,2.047a.622.622,0,0,1-.493.238.632.632,0,0,1-.382-.128.621.621,0,0,1-.111-.875l1.74-2.238-1.716-1.966a.623.623,0,1,1,.939-.818l1.56,1.78,1.85-2.377a.624.624,0,0,1,.985.765l-2,2.569,1.971,2.256A.619.619,0,0,1,2665.35,2862.8Zm10.206,2.65h-7.492V2864.2h1.873a.626.626,0,0,0,0-1.253h-1.873V2861.7h1.873a.623.623,0,0,0,0-1.246h-1.873V2859.2h1.873a.623.623,0,0,0,0-1.247h-1.873v-1.246h1.873a.626.626,0,0,0,0-1.253h-1.873v-1.246h7.492Zm-3.126-8.738h1.253a.626.626,0,0,0,0-1.253h-1.253a.626.626,0,0,0,0,1.253Zm0,2.493h1.253a.623.623,0,0,0,0-1.247h-1.253a.623.623,0,0,0,0,1.247Zm0,2.5h1.253a.623.623,0,0,0,0-1.246h-1.253a.623.623,0,0,0,0,1.246Zm0,2.5h1.253a.626.626,0,0,0,0-1.253h-1.253a.626.626,0,0,0,0,1.253Z" fill="#007208"/>
    <path id="Path_1115" data-name="Path 1115" d="M2665.35,2862.8a.6.6,0,0,1-.411.151.617.617,0,0,1-.464-.209l-1.821-2.076-1.589,2.047a.622.622,0,0,1-.493.238.632.632,0,0,1-.382-.128.621.621,0,0,1-.111-.875l1.74-2.238-1.716-1.966a.623.623,0,1,1,.939-.818l1.56,1.78,1.85-2.377a.624.624,0,0,1,.985.765l-2,2.569,1.971,2.256A.619.619,0,0,1,2665.35,2862.8Z" fill="#fafafa"/>
    <path id="Path_1116" data-name="Path 1116" d="M2668.064,2854.209v1.246h1.873a.626.626,0,0,1,0,1.253h-1.873v1.246h1.873a.623.623,0,0,1,0,1.247h-1.873v1.253h1.873a.623.623,0,0,1,0,1.246h-1.873v1.247h1.873a.626.626,0,0,1,0,1.253h-1.873v1.246h7.492v-11.237Zm5.619,9.991h-1.253a.626.626,0,0,1,0-1.253h1.253a.626.626,0,0,1,0,1.253Zm0-2.5h-1.253a.623.623,0,0,1,0-1.246h1.253a.623.623,0,0,1,0,1.246Zm0-2.5h-1.253a.623.623,0,0,1,0-1.247h1.253a.623.623,0,0,1,0,1.247Zm0-2.493h-1.253a.626.626,0,0,1,0-1.253h1.253a.626.626,0,0,1,0,1.253Z" fill="#fafafa"/>
    <path id="Path_1117" data-name="Path 1117" d="M2674.3,2863.573a.627.627,0,0,1-.62.627h-1.253a.626.626,0,0,1,0-1.253h1.253A.626.626,0,0,1,2674.3,2863.573Z"/>
    <path id="Path_1118" data-name="Path 1118" d="M2674.3,2861.074a.622.622,0,0,1-.62.626h-1.253a.623.623,0,0,1,0-1.246h1.253A.62.62,0,0,1,2674.3,2861.074Z"/>
    <path id="Path_1119" data-name="Path 1119" d="M2674.3,2858.581a.62.62,0,0,1-.62.62h-1.253a.623.623,0,0,1,0-1.247h1.253A.623.623,0,0,1,2674.3,2858.581Z"/>
    <path id="Path_1120" data-name="Path 1120" d="M2671.81,2856.082a.626.626,0,0,1,.62-.627h1.253a.626.626,0,0,1,0,1.253h-1.253A.622.622,0,0,1,2671.81,2856.082Z"/>
    <path id="Path_1121" data-name="Path 1121" d="M2674.3,2856.082a.623.623,0,0,1-.62.626h-1.253a.626.626,0,0,1,0-1.253h1.253A.626.626,0,0,1,2674.3,2856.082Z" fill="#007208"/>
    <path id="Path_1122" data-name="Path 1122" d="M2674.3,2858.581a.62.62,0,0,1-.62.62h-1.253a.623.623,0,0,1,0-1.247h1.253A.623.623,0,0,1,2674.3,2858.581Z" fill="#007208"/>
    <path id="Path_1123" data-name="Path 1123" d="M2674.3,2861.074a.622.622,0,0,1-.62.626h-1.253a.623.623,0,0,1,0-1.246h1.253A.62.62,0,0,1,2674.3,2861.074Z" fill="#007208"/>
    <path id="Path_1124" data-name="Path 1124" d="M2674.3,2863.573a.627.627,0,0,1-.62.627h-1.253a.626.626,0,0,1,0-1.253h1.253A.626.626,0,0,1,2674.3,2863.573Z" fill="#007208"/>
  </g>
</svg>
