<svg id="iconfinder_09_Expand_106235" xmlns="http://www.w3.org/2000/svg" width="13.851" height="13.851" viewBox="0 0 13.851 13.851">
  <g id="Group_2120" data-name="Group 2120" transform="translate(0 0)">
    <path id="Path_1309" data-name="Path 1309" d="M4.826,7.786,1.977,10.634.866,9.523A.865.865,0,0,0,0,10.388v2.6a.865.865,0,0,0,.866.866h2.6a.865.865,0,0,0,.866-.866L3.217,11.875,6.065,9.026ZM12.986,0h-2.6a.865.865,0,0,0-.866.866l1.112,1.112L7.786,4.826,9.026,6.065l2.848-2.848,1.112,1.111a.865.865,0,0,0,.866-.866V.866A.865.865,0,0,0,12.986,0Zm0,9.523-1.112,1.112L9.026,7.786,7.786,9.026l2.848,2.849L9.523,12.986a.865.865,0,0,0,.866.866h2.6a.865.865,0,0,0,.866-.866v-2.6A.865.865,0,0,0,12.986,9.523ZM4.329.866A.865.865,0,0,0,3.463,0H.866A.865.865,0,0,0,0,.866v2.6a.865.865,0,0,0,.866.866L1.977,3.217,4.826,6.065,6.065,4.826,3.217,1.977Z" transform="translate(0 0)" fill="#9e9e9e"/>
  </g>
</svg>
