<svg xmlns="http://www.w3.org/2000/svg" width="14.584" height="18.993" viewBox="0 0 14.584 18.993">
  <g id="Group_1128" data-name="Group 1128" transform="translate(-2656.826 -2901.365)">
    <path id="Path_1215" data-name="Path 1215" d="M2667.166,2901.365h-9.843c-.275,0-.5.221-.5.652v18c0,.117.222.339.5.339h13.592a.51.51,0,0,0,.495-.339v-14.252c0-.237-.031-.313-.086-.368l-3.946-3.947a.3.3,0,0,0-.212-.087Zm0,0" fill="#f2f2f2"/>
    <path id="Path_1216" data-name="Path 1216" d="M2667.341,2901.416v4.019h4.018Zm0,0" fill="#e6e6e6"/>
    <path id="Path_1217" data-name="Path 1217" d="M2661.24,2912.667a.543.543,0,0,1-.328-.111.811.811,0,0,1-.378-.76c.062-.553.744-1.131,2.031-1.719a22.592,22.592,0,0,0,1.283-3.647,3.353,3.353,0,0,1-.427-2.252.647.647,0,0,1,.384-.412,1.652,1.652,0,0,1,.345-.058c.172,0,.321.22.429.356s.326.4-.128,2.307a10.812,10.812,0,0,0,1.726,2.563,6.721,6.721,0,0,1,1.139-.12c.532,0,.853.124.984.379a.685.685,0,0,1-.131.732.9.9,0,0,1-.753.4,2.257,2.257,0,0,1-1.43-.775,16.361,16.361,0,0,0-2.994.957,9.674,9.674,0,0,1-.808,1.443c-.346.487-.648.713-.944.713Zm.9-1.738c-.723.407-1.02.742-1.04.93-.005.032-.013.113.146.236.05-.017.345-.151.894-1.166Zm4.626-1.507c.277.213.345.321.525.321a.509.509,0,0,0,.411-.151.634.634,0,0,0,.078-.141c-.042-.021-.1-.066-.4-.066a5.119,5.119,0,0,0-.614.037Zm-2.534-2.233a23.708,23.708,0,0,1-.906,2.565,16.965,16.965,0,0,1,2.2-.684,11.625,11.625,0,0,1-1.3-1.881Zm-.2-2.87a.814.814,0,0,0,.033,1.091c.321-.717-.018-1.1-.033-1.091Zm0,0" fill="#cc4b4c"/>
    <path id="Path_1218" data-name="Path 1218" d="M2670.915,2920.358h-13.592a.5.5,0,0,1-.5-.5v-5.27h14.584v5.27a.5.5,0,0,1-.495.5Zm0,0" fill="#cc4b4c"/>
    <path id="Path_1219" data-name="Path 1219" d="M2660.518,2919.34h-.556v-3.417h.983a1.405,1.405,0,0,1,.431.07,1.149,1.149,0,0,1,.382.209,1.054,1.054,0,0,1,.273.336.92.92,0,0,1,.1.442,1.185,1.185,0,0,1-.088.47.993.993,0,0,1-.245.356,1.129,1.129,0,0,1-.381.222,1.453,1.453,0,0,1-.492.08h-.412Zm0-2.994v1.353h.51a.614.614,0,0,0,.2-.035.515.515,0,0,0,.184-.114.591.591,0,0,0,.134-.219,1.073,1.073,0,0,0,.051-.351.965.965,0,0,0-.023-.192.552.552,0,0,0-.3-.376.744.744,0,0,0-.343-.066Zm0,0" fill="#fff"/>
    <path id="Path_1220" data-name="Path 1220" d="M2665.549,2917.537a2.575,2.575,0,0,1-.089.722,1.807,1.807,0,0,1-.231.5,1.156,1.156,0,0,1-.313.318,1.486,1.486,0,0,1-.336.175,1.55,1.55,0,0,1-.3.074,1.991,1.991,0,0,1-.2.015h-1.293v-3.417h1.03a1.946,1.946,0,0,1,.757.136,1.57,1.57,0,0,1,.543.365,1.487,1.487,0,0,1,.323.516,1.729,1.729,0,0,1,.106.6Zm-1.651,1.4a.925.925,0,0,0,.816-.362,2.164,2.164,0,0,0,.2-1.47.931.931,0,0,0-.2-.378,1.067,1.067,0,0,0-.4-.273,1.694,1.694,0,0,0-.649-.1h-.324v2.587Zm0,0" fill="#fff"/>
    <path id="Path_1221" data-name="Path 1221" d="M2666.922,2916.346v1.074h1.428v.382h-1.428v1.538h-.566v-3.417h2.138v.423Zm0,0" fill="#fff"/>
  </g>
</svg>
