<svg xmlns="http://www.w3.org/2000/svg" width="16.333" height="16.332" viewBox="0 0 16.333 16.332">
  <g id="Group_1139" data-name="Group 1139" transform="translate(-4064.696 -2706.702)">
    <path id="Path_1249" data-name="Path 1249" d="M4065.265,2711.638a.568.568,0,0,0,.569-.568v-2.426l3.664,3.663a.568.568,0,0,0,.8-.8l-3.664-3.663h2.426a.569.569,0,0,0,0-1.138h-3.8a.569.569,0,0,0-.569.569v3.8a.568.568,0,0,0,.569.568Zm0,0" fill="#666"/>
    <path id="Path_1250" data-name="Path 1250" d="M4080.46,2718.1a.569.569,0,0,0-.569.569v2.425l-3.776-3.776a.569.569,0,0,0-.8.8l3.776,3.776h-2.426a.569.569,0,0,0,0,1.138h3.8a.569.569,0,0,0,.569-.569v-3.8a.57.57,0,0,0-.569-.569Zm0,0" fill="#666"/>
    <path id="Path_1251" data-name="Path 1251" d="M4069.61,2717.316l-3.776,3.776v-2.425a.568.568,0,1,0-1.137,0v3.8a.568.568,0,0,0,.569.568h3.8a.568.568,0,1,0,0-1.137h-2.425l3.776-3.777a.569.569,0,1,0-.8-.8Zm0,0" fill="#666"/>
    <path id="Path_1252" data-name="Path 1252" d="M4080.46,2706.7h-3.8a.569.569,0,0,0,0,1.138h2.426l-3.663,3.663a.568.568,0,1,0,.8.8l3.663-3.663v2.426a.569.569,0,0,0,1.138,0v-3.8a.57.57,0,0,0-.569-.569Zm0,0" fill="#666"/>
  </g>
</svg>
