<svg xmlns="http://www.w3.org/2000/svg" width="21.06" height="22.564" viewBox="0 0 21.06 22.564">
  <g id="Group_675" data-name="Group 675" transform="translate(-4563.211 -131.392)">
    <path id="Path_384" data-name="Path 384" d="M4583.9,132.9h-2.634v-1.128a.375.375,0,0,0-.374-.376h-2.634a.377.377,0,0,0-.376.376V132.9H4569.6v-1.128a.377.377,0,0,0-.377-.376H4566.6a.377.377,0,0,0-.377.376V132.9h-2.631a.376.376,0,0,0-.376.376V153.58a.376.376,0,0,0,.376.376H4583.9a.377.377,0,0,0,.376-.376V133.272a.377.377,0,0,0-.376-.376Zm-5.265-.751h1.88V134.4h-1.88Zm-11.659,0h1.881V134.4h-1.881Zm-3.007,1.5h2.254v1.127a.378.378,0,0,0,.377.377h2.633a.377.377,0,0,0,.377-.377v-1.127h8.272v1.127a.377.377,0,0,0,.376.377h2.634a.375.375,0,0,0,.374-.377v-1.127h2.257v3.384h-19.554Zm0,19.554V137.786h19.554V153.2Zm0,0" fill="#333"/>
    <path id="Path_385" data-name="Path 385" d="M4576.75,140.041H4566.6v10.908h14.292V140.041Zm-2.634.753h2.634v2.633h-2.634Zm2.634,6.017h-2.634v-2.633h2.634Zm-6.018-2.633h2.633v2.633h-2.633Zm0-3.384h2.633v2.633h-2.633Zm-3.384,0h2.631v2.633h-2.631Zm0,3.384h2.631v2.633h-2.631Zm2.631,6.017h-2.631v-2.633h2.631Zm3.386,0h-2.633v-2.633h2.633Zm3.385,0h-2.634v-2.633h2.634Zm3.384,0H4577.5v-2.633h2.634Zm0-3.384H4577.5v-2.633h2.634Zm0-6.017v2.633H4577.5v-2.633Zm0,0" fill="#333"/>
  </g>
</svg>
