<svg xmlns="http://www.w3.org/2000/svg" width="26.168" height="18.692" viewBox="0 0 26.168 18.692">
  <g id="facetime-button" transform="translate(0 -73.09)">
    <path id="Path_2163" data-name="Path 2163" d="M25.6,73.63a1.017,1.017,0,0,0-.365-.073.868.868,0,0,0-.657.278l-5.885,5.87V77.3a4.213,4.213,0,0,0-4.206-4.206H4.206a4.051,4.051,0,0,0-2.972,1.234A4.051,4.051,0,0,0,0,77.3v10.28a4.051,4.051,0,0,0,1.234,2.972,4.051,4.051,0,0,0,2.972,1.234h10.28a4.213,4.213,0,0,0,4.206-4.206V85.152l5.885,5.885a.868.868,0,0,0,.657.277,1.019,1.019,0,0,0,.365-.073.873.873,0,0,0,.57-.862V74.492A.873.873,0,0,0,25.6,73.63Z" fill="#f6f6f6"/>
  </g>
</svg>
