<svg xmlns="http://www.w3.org/2000/svg" width="19.625" height="18.804" viewBox="0 0 19.625 18.804">
  <g id="Group_1108" data-name="Group 1108" transform="translate(-2657.002 -2800.953)">
    <path id="Path_1107" data-name="Path 1107" d="M2676.215,2802.589h-7.763v-1.225a.408.408,0,0,0-.158-.32.4.4,0,0,0-.347-.081l-10.625,2.45a.412.412,0,0,0-.32.4v13.9a.419.419,0,0,0,.347.407l10.631,1.631a.413.413,0,0,0,.466-.341c0-.022.006-.044.006-.06v-1.23h7.763a.407.407,0,0,0,.412-.407V2803A.412.412,0,0,0,2676.215,2802.589Z" fill="#1565c0"/>
    <rect id="Rectangle_1153" data-name="Rectangle 1153" width="7.357" height="13.9" transform="translate(2668.452 2803.408)" fill="#fafafa"/>
    <path id="Path_1108" data-name="Path 1108" d="M2663.953,2814.036a.408.408,0,0,1-.392-.3l-1.243-4.348-1.243,4.348a.425.425,0,0,1-.785,0l-1.635-5.723a.409.409,0,1,1,.779-.247l.006.023,1.243,4.346,1.243-4.347a.424.424,0,0,1,.785,0l1.242,4.347,1.243-4.346a.4.4,0,0,1,.5-.284l.009,0a.41.41,0,0,1,.281.505l-1.636,5.723A.408.408,0,0,1,2663.953,2814.036Z" fill="#fafafa"/>
    <g id="Group_1107" data-name="Group 1107">
      <path id="Path_1109" data-name="Path 1109" d="M2674.99,2805.452a.406.406,0,0,1-.407.406h-6.131v-.813h6.131A.406.406,0,0,1,2674.99,2805.452Z" fill="#1565c0"/>
      <path id="Path_1110" data-name="Path 1110" d="M2674.99,2807.9a.41.41,0,0,1-.407.412h-6.131v-.818h6.131A.409.409,0,0,1,2674.99,2807.9Z" fill="#1565c0"/>
      <path id="Path_1111" data-name="Path 1111" d="M2674.99,2810.358a.41.41,0,0,1-.407.407h-6.131v-.819h6.131A.41.41,0,0,1,2674.99,2810.358Z" fill="#1565c0"/>
      <path id="Path_1112" data-name="Path 1112" d="M2674.99,2812.809a.411.411,0,0,1-.407.412h-6.131v-.819h6.131A.409.409,0,0,1,2674.99,2812.809Z" fill="#1565c0"/>
      <path id="Path_1113" data-name="Path 1113" d="M2674.99,2815.264a.409.409,0,0,1-.407.407h-6.131v-.819h6.131A.411.411,0,0,1,2674.99,2815.264Z" fill="#1565c0"/>
    </g>
  </g>
</svg>
